<?xml version="1.0" encoding="utf-8"?>
<!-- Generator: Adobe Illustrator 21.1.0, SVG Export Plug-In . SVG Version: 6.00 Build 0)  -->
<svg version="1.1" id="Layer_1" xmlns="http://www.w3.org/2000/svg" xmlns:xlink="http://www.w3.org/1999/xlink" x="0px" y="0px"
	 viewBox="0 0 601.3 121.3" style="enable-background:new 0 0 601.3 121.3;" xml:space="preserve">
<style type="text/css">
	.st0{fill:#004677;}
	.st1{fill:#FFFFFF;}
	.st2{fill:#00B185;}
	.st3{fill-rule:evenodd;clip-rule:evenodd;fill:#FFFFFF;}
</style>
<path class="st0" d="M10.7,56.7c0-22.3,37.2-40.4,80-40.4c42.9,0,77.6,18.1,77.6,40.4c0,22.3-34.7,40.4-77.6,40.4
	C47.9,97.1,10.7,79,10.7,56.7"/>
<path class="st1" d="M24.8,55.4c0-22.3,34.8-40.4,77.6-40.4c42.9,0,77.6,18.1,77.6,40.4c0,22.3-34.7,40.4-77.6,40.4
	C59.6,95.7,24.8,77.7,24.8,55.4"/>
<path class="st0" d="M37.1,55c0-21.1,31.4-38.3,70.2-38.3c38.8,0,70.2,17.1,70.2,38.3c0,21.1-31.4,38.3-70.2,38.3
	C68.5,93.3,37.1,76.1,37.1,55"/>
<polyline class="st1" points="173.6,30.1 163.2,63.6 129.1,63.6 123.9,80.4 80.8,80.4 85.8,63.6 56.2,63.6 67,30.1 96.3,30.1 
	101.1,14.6 144.2,14.6 139.5,30.1 173.6,30.1 "/>
<polyline class="st2" points="109,16.4 141.8,16.4 137.1,31.8 171.2,31.8 161.9,61.9 127.8,61.9 122.6,78.6 89.8,78.6 94.9,61.9 
	65.3,61.9 74.9,31.8 104.2,31.8 109,16.4 "/>
<path class="st3" d="M219.1,50.6c-2.1,0-2.6,0.1-4.3,0.1c-1.5,0-3,0-4.5,0h-5.9l-4.6,0l-1.1,2h0.4c0.8,0,1.1,0.1,1.4,0.4
	c0.3,0.3,0.4,0.7,0.4,1.5c0,0.3,0,0.8-0.1,1.3c-0.1,0.8-0.2,1.7-0.4,2.7L198,73.4c-0.2,1.1-0.5,2.8-0.7,3.9
	c-0.4,1.7-0.5,2.3-1.1,4.1l1.7-0.1h4.2l1.8,0.1c-0.1-0.8-0.1-1.1-0.1-1.7c0-1.8,0.2-3.8,0.6-6.6l1-5.9c0.7,0,1.3,0,1.6,0
	c0.8,0,1.3,0,1.9,0c0.6,0,1.4,0,2.1,0c1.1,0,1.9,0.1,3.5,0.2l0.1-1.1l0.3-1.8l0.3-1.1c-1.3,0.1-1.9,0.1-2.7,0.1
	c-1.1,0-2.4,0.1-3.9,0.1h-2.7l0.9-5.5l0.9-4.6c1.1-0.1,2.3-0.1,2.8-0.1c1.6,0,2.9,0.2,3.9,0.6c0.8,0.3,1.2,0.7,1.8,1.6l0.7-0.1
	l0.5-1.4l0.9-2.1L219.1,50.6"/>
<path class="st3" d="M246.2,81c-0.7-0.8-1.1-1.2-1.4-1.8c-0.4-0.7-0.9-1.6-1.4-2.7c-1.3-2.8-2.3-5.2-3.4-7.8
	c-0.5-1.3-0.3-0.6-0.9-2.3l-0.3-0.6l-0.3-0.6c0.8-0.2,1.2-0.4,1.6-0.6c1.1-0.5,2.2-1.2,3-2c1.5-1.5,2.3-3.8,2.3-6
	c0-2.5-1.1-4.3-3-5.3c-0.9-0.4-2.4-0.7-3.9-0.7H237l-1.5,0h-1.4l-7.7,0l-2.7,0l-1.1,2h0.4c0.8,0,1.2,0.1,1.4,0.4
	c0.4,0.3,0.4,0.7,0.4,1.5c0,0.3,0,0.8-0.1,1.3c-0.1,0.9-0.2,1.8-0.4,2.7l-2.3,14.8c-0.1,0.6-0.2,1-0.4,1.9c-0.1,0.8-0.2,1.5-0.3,2
	c-0.4,1.7-0.6,2.3-1.1,4.1l1.7-0.1h4.2l1.8,0.1c-0.1-0.8-0.1-1.1-0.1-1.7c0-1.9,0.2-3.9,0.6-6.6l2.5-15.4c0.2-1.1,0.4-1.9,0.5-2.7
	c0-0.3,0.1-0.8,0.3-1.3c1.2-0.2,1.8-0.2,2.4-0.2c3,0,4.5,1.4,4.5,4.3c0,1.9-0.7,3.9-1.8,5.2c-0.9,1-2.4,1.7-3.8,1.7
	c-0.7,0-1,0-1.7,0l-0.4,1.3l-0.6,1.5h0.7c0.8,0,1.1,0.1,1.4,0.5c0.2,0.3,0.6,1.1,1,1.9c0.8,1.8,1.5,3.7,2.2,5.5l1.5,4.4l0.1,0.4
	l0.1,0.4l0.1,0.4c0,0.1,0.1,0.4,0.3,0.8l2.4-0.1l3.9-0.1h2L246.2,81"/>
<path class="st3" d="M273.3,50.6c-2,0-2.7,0.1-4.3,0.1h-4.5l-1.9,0h-5.4c-1,0-2,0-3.1,0l-1.1,2h0.4c0.8,0,1.1,0.1,1.4,0.4
	c0.3,0.3,0.4,0.8,0.4,1.5c0,0.9-0.2,2.4-0.4,4.1l-2.3,14.8c-0.1,0.5-0.2,1-0.4,1.9c-0.1,0.8-0.2,1.4-0.3,2c-0.4,1.7-0.6,2.3-1.1,4.1
	c0.5,0,1,0,1.4,0c1.6,0,2.2-0.1,2.9-0.1l2.3,0.1h2.3l2.3,0h1.9c2.5,0,3.7,0,3.9,0c0.2,0,0.8,0.1,1.5,0.1l0.5-1.6l0.8-2.2l0.7-1.6
	l-0.8-0.3c-0.4,0.4-0.7,0.6-0.9,0.8c-0.5,0.4-1.2,0.7-1.8,1c-1.1,0.4-2.7,0.7-4.5,0.7c-2.7,0-3.8-0.3-4.2-1.3
	c-0.1-0.4-0.2-0.7-0.2-1.2c0-0.3,0-0.8,0.1-1.2c0-0.6,0.1-1.3,0.3-2.3l0.9-5.8c1.6,0,2.3,0,3.4,0c1.2,0,2.7,0,4,0.1
	c0.4,0,1,0,1.8,0.1l0.1-1l0.3-1.5l0.3-1.1c-1.3,0.1-1.9,0.2-2.7,0.2c-1.1,0-2.4,0.1-3.8,0.1h-0.9c-0.4,0-1,0-1.8,0l0.8-4.9
	c0.2-1.1,0.4-2,0.5-2.9c0-0.4,0.2-0.9,0.4-1.6c1-0.1,2.2-0.1,2.7-0.1c1.7,0,3,0.2,4,0.6c0.8,0.3,1.2,0.7,1.7,1.6l0.7-0.1l0.5-1.3
	l0.9-2.1L273.3,50.6"/>
<path class="st3" d="M298.7,50.6c-2,0-2.7,0.1-4.3,0.1h-4.5l-1.9,0h-5.4c-1,0-2,0-3,0l-1.1,2h0.4c0.8,0,1.1,0.1,1.4,0.4
	c0.3,0.3,0.4,0.8,0.4,1.5c0,0.9-0.2,2.4-0.4,4.1l-2.3,14.8c-0.1,0.5-0.2,1-0.4,1.9c-0.1,0.8-0.2,1.4-0.3,2c-0.4,1.7-0.6,2.3-1.1,4.1
	c0.5,0,1,0,1.4,0c1.6,0,2.2-0.1,2.9-0.1l2.3,0.1h2.3l2.3,0h1.9c2.5,0,3.7,0,3.9,0c0.2,0,0.8,0.1,1.5,0.1l0.5-1.6l0.8-2.2l0.7-1.6
	l-0.8-0.3c-0.4,0.4-0.7,0.6-0.9,0.8c-0.5,0.4-1.1,0.7-1.8,1c-1.1,0.4-2.7,0.7-4.6,0.7c-2.7,0-3.8-0.3-4.2-1.3
	c-0.1-0.4-0.2-0.7-0.2-1.2c0-0.3,0-0.8,0.1-1.2c0-0.6,0.1-1.3,0.3-2.3l0.9-5.8c1.6,0,2.3,0,3.4,0c1.2,0,2.7,0,4,0.1
	c0.4,0,1,0,1.8,0.1l0.1-1l0.3-1.5l0.3-1.1c-1.3,0.1-1.9,0.2-2.7,0.2c-1.1,0-2.4,0.1-3.8,0.1h-0.9c-0.4,0-1,0-1.8,0l0.8-4.9
	c0.2-1.1,0.4-2,0.5-2.9c0-0.4,0.2-0.9,0.4-1.6c1-0.1,2.2-0.1,2.6-0.1c1.7,0,3,0.2,4,0.6c0.8,0.3,1.2,0.7,1.7,1.6l0.7-0.1l0.5-1.3
	l0.9-2.1L298.7,50.6"/>
<path class="st3" d="M330.4,67.9l-2.5,0.1h-3l-2.4-0.1l6.2-12.9L330.4,67.9 M340.1,81.4c-0.2-0.6-0.3-0.9-0.4-1.2
	c-0.2-0.7-0.4-1.5-0.7-2.4c-0.4-1.5-0.7-3-0.9-4.2l-3.2-19.5c-0.2-1.2-0.4-2.3-0.4-3.3c0-0.3,0-0.7,0-1.3l-1.9,0.3l-3.6,0.4
	l-1.6,0.1c-0.5,1.4-0.8,1.9-1.1,2.7c-0.4,0.8-1,1.9-1.5,2.8l-9.4,17.9c-0.3,0.6-0.5,1.1-1,1.9c-0.3,0.6-0.7,1.2-1,1.7
	c-0.8,1.4-1.1,1.9-2.3,3.5l0.1,0.4l1.7-0.1h3.5l1.3,0.1c0-0.4-0.1-0.8-0.1-1.1c0-1.4,0.5-3.1,1.6-5.5l1.7-3.7l3-0.1h4l2.8,0.1
	l0.5,3.8c0,0.3,0.1,0.6,0.1,0.8c0.1,0.9,0.2,1.3,0.2,1.6c0,0.4,0,0.9,0,1.4c0,0.7,0,1.3-0.2,2.6l2.6-0.1h4.2L340.1,81.4z"/>
<path class="st3" d="M383.6,50.6l-2.1,0h-4.2l-1.9-0.1l-0.8,2c-0.4,1.1-1,2.2-1.5,3.2l-9.3,16.9l-0.7-3.1l-3-14
	c-0.1-0.4-0.2-0.7-0.3-1c-0.1-0.9-0.2-1.4-0.3-1.9c0-0.4-0.1-1.1-0.2-2l-2.4,0.1h-5.5l-1.9,0l-1.1,2h0.4c0.4,0,0.7,0,0.9,0.1
	c0.6,0.2,0.9,0.7,0.9,1.6c0,0.4-0.1,1.1-0.2,1.7c-0.2,1.1-0.4,2-0.6,2.8l-3.2,13.7c-0.2,0.7-0.3,1.3-0.6,2.4
	c-0.3,0.9-0.4,1.6-0.6,2.3c-0.5,1.7-0.7,2.3-1.4,4.1l1.6-0.1h2l1.9,0.1c-0.1-0.6-0.1-0.9-0.1-1.3c0-0.4,0-1.1,0.1-1.8
	c0.2-1.7,0.5-3.9,1-5.8l2.5-11l0.9-4.1l0.7,3.9l3.7,15.5c0.1,0.4,0.4,1.8,0.5,2.5c0.2,1.1,0.2,1.4,0.3,2.6l1.3,0h1.6l1.3,0
	c0.2-0.8,0.3-1.2,0.5-1.7c0.4-1.1,1.2-2.7,1.8-3.8L376.2,57l-0.4,3.5l-1.3,12.8c0,0.4-0.1,0.9-0.2,1.9c-0.1,0.8-0.2,1.4-0.3,2
	c-0.3,1.8-0.4,2.3-0.8,4.1l1.7-0.1h4.1l1.9,0.1c-0.1-0.6-0.1-0.8-0.1-1.1c0-0.5-0.1-1.3-0.1-2c0-1.5,0.1-3.1,0.3-5.2l1.6-15.2
	c0.2-1.7,0.3-3,0.5-3.9C383.1,52.8,383.3,52.2,383.6,50.6"/>
<path class="st3" d="M406.1,57.3c0,0.9-0.2,1.9-0.5,2.9c-0.6,1.6-1.6,2.7-2.9,3.1c-0.7,0.2-1.2,0.3-2.2,0.3c-0.1,0-0.5,0-0.9,0
	l-0.4,1.4l-0.6,1.5c1.4-0.1,2-0.2,2.8-0.2c1.4,0,2.3,0.3,3,0.8c1,0.8,1.5,2.1,1.5,3.9c0,2.9-1.2,5.4-3.2,6.8c-1,0.7-2.1,1-3.5,1
	c-0.7,0-1.3-0.1-1.9-0.3c-0.4-0.1-0.7-0.4-0.9-0.7c-0.2-0.4-0.3-0.8-0.3-1.6c0-0.3,0-0.7,0-1c0.1-0.5,0.2-1.1,0.3-1.9l2.5-15.6
	l0.8-4.2c1.1-0.1,1.8-0.2,2.3-0.2c1.4,0,2.3,0.3,3,0.9C405.8,54.9,406.1,55.9,406.1,57.3 M412.8,56c0-2.3-1.1-4.1-3-4.9
	c-0.8-0.4-2.3-0.6-3.6-0.6c0,0-1.4,0-3.3,0.1l-1.6,0l-5.2,0l-4.1-0.1l-1.2,2h0.4c0.8,0,1.1,0.1,1.4,0.4c0.3,0.3,0.4,0.8,0.4,1.5
	c0,0.9-0.2,2.4-0.4,4.1l-2.3,14.8c-0.1,0.5-0.2,1-0.4,1.9c-0.1,0.8-0.2,1.4-0.3,2c-0.4,1.7-0.6,2.3-1.2,4.1l3.1-0.1l4.6,0.1l4.1,0
	c1,0,1.5,0,2.3-0.1c1-0.1,1.7-0.2,2.3-0.4c1.9-0.6,3.8-1.6,5.1-3c1.9-2,3.1-4.9,3.1-7.5c0-1.1-0.2-2.1-0.6-3
	c-0.7-1.4-2.1-2.5-3.7-2.7c-0.7-0.1-1.5-0.2-2.4-0.2v-0.3c0.7-0.3,1.3-0.6,1.8-0.8c1.1-0.6,2.1-1.3,2.8-2.1
	C412,59.9,412.8,57.9,412.8,56z"/>
<path class="st3" d="M447.2,50.6l-1.8,0.1h-2.7l-1.7-0.1c0.1,0.8,0.1,1.1,0.1,2.1c0,0.7,0,1.6-0.1,2.5c-0.1,1.3-0.2,2.6-0.4,3.8
	l-1.4,8.2c-0.1,0.4-0.2,0.9-0.3,1.4c-0.1,1.2-0.3,1.9-0.4,2.7c-0.3,1.7-0.9,3.2-1.5,4.2c-1.5,2-3.7,3.1-6.2,3.1
	c-1.2,0-2.4-0.3-3.3-0.8c-1.1-0.6-1.8-1.5-2.2-2.7c-0.2-0.6-0.3-1.2-0.3-2.2c0-0.3,0-0.8,0-1.3c0.1-0.6,0.1-1.2,0.2-1.9
	c0.1-0.8,0.3-1.6,0.4-2.4l1.5-9.6c0.2-1.4,0.5-3,1-5c0.2-0.8,0.4-1.5,0.5-2.3l-2,0.1H422l-1.9,0l-1.1,2.2l0.4,0h0.2
	c0.4,0,1,0.1,1.2,0.3c0.3,0.3,0.4,0.8,0.4,1.4c0,0.4,0,1-0.1,1.5c-0.1,0.8-0.2,1.8-0.4,2.7l-1.4,8.3c-0.1,0.5-0.2,1-0.3,1.5
	c-0.1,1.4-0.2,2.2-0.4,3.1c0,0.5-0.1,1.4-0.1,1.9c0,0.6,0,0.8,0,1.2c0.1,1.2,0.4,2.2,0.8,3c0.9,1.8,2.3,2.9,4.5,3.7
	c1.6,0.6,3.7,0.9,5.8,0.9c3.9,0,7.1-1,9.6-3c1.7-1.4,2.8-3.2,3.6-5.8c0.4-1.2,0,0.8,1.1-6.2l1.4-8.6c0.1-0.6,0.2-1.1,0.4-1.9
	c0.1-0.8,0.3-1.4,0.4-2C446.5,53.1,446.7,52.5,447.2,50.6"/>
<path class="st3" d="M470.8,75.9l-0.7-0.3c-1.2,1.2-1.9,1.6-2.9,2c-1.1,0.4-2.6,0.7-4.4,0.7c-2.5,0-3.5-0.4-4-1.3
	c-0.1-0.4-0.2-0.7-0.2-1.2c0-0.3,0-0.8,0.1-1.2c0-0.7,0.2-1.5,0.3-2.3l2.3-14.4c0.3-1.9,0.6-3.4,1-5c0.2-0.8,0.4-1.5,0.5-2.3
	l-1.9,0.1H456l-1.7,0l-1.2,2h0.4c0.8,0,1.1,0.1,1.4,0.4c0.3,0.3,0.4,0.8,0.4,1.5c0,0.9-0.2,2.4-0.4,4.1l-2.3,14.8
	c-0.1,0.5-0.2,1-0.4,1.9c-0.1,0.8-0.2,1.4-0.3,2c-0.4,1.7-0.6,2.3-1.1,4.1l4.8-0.1l6.1,0.1h1.9l3.8,0.1c0.1,0,0.8,0,1.6,0.1l0.5-1.8
	l0.8-2.1L470.8,75.9"/>
<path class="st3" d="M491.1,67.9l-2.5,0.1h-3l-2.4-0.1l6.2-12.9L491.1,67.9 M500.7,81.4c-0.2-0.6-0.3-0.9-0.4-1.2
	c-0.2-0.7-0.4-1.5-0.7-2.4c-0.4-1.5-0.7-3-0.9-4.2l-3.2-19.5c-0.2-1.2-0.4-2.3-0.4-3.3c0-0.3,0-0.7,0-1.3l-1.9,0.3l-3.6,0.4
	l-1.6,0.1c-0.5,1.4-0.8,1.9-1.2,2.7c-0.4,0.8-1,1.9-1.5,2.8L476,73.8c-0.3,0.6-0.5,1.1-1,1.9c-0.3,0.6-0.7,1.2-1,1.7
	c-0.8,1.4-1.1,1.9-2.3,3.5l0.1,0.4l1.7-0.1h3.5l1.3,0.1c0-0.4-0.1-0.8-0.1-1.1c0-1.4,0.5-3.1,1.6-5.5l1.7-3.7l3-0.1h4l2.8,0.1
	l0.5,3.8c0,0.3,0.1,0.6,0.1,0.8c0.1,0.9,0.2,1.3,0.2,1.6c0,0.4,0,0.9,0,1.4c0,0.7,0,1.3-0.2,2.6l2.6-0.1h4.2L500.7,81.4z"/>
<path class="st3" d="M536.8,50.6l-1.7,0h-2.3l-1.7,0c0,0.3,0.1,0.5,0.1,0.7c0,0.4,0.1,0.9,0.1,1.4c0,1,0,1.7-0.1,2.7
	c-0.1,1.3-0.3,2.8-0.5,4.5l-1.2,8.5l-0.5,3.4l-1.8-3.4l-6.7-12.5c-0.5-1-1.1-2.1-1.6-3.4c-0.2-0.4-0.4-1-0.7-1.7l-2.4,0l-4.7,0
	l-1.8,0l-1.2,2h0.4c0.8,0,1.1,0.1,1.4,0.3c0.3,0.3,0.4,0.8,0.4,1.5c0,0.9-0.1,2.4-0.4,4.2l-2.3,14.4c-0.1,0.6-0.2,1.2-0.4,2.1
	c-0.1,0.8-0.3,1.5-0.4,2.1c-0.4,1.7-0.5,2.3-1.1,4.1l1.7-0.1h2.3l1.8,0.1c-0.1-0.3-0.1-0.5-0.1-0.7c0-0.4-0.1-0.9-0.1-1.4
	c0-1,0-1.6,0.1-2.5c0.1-1.3,0.2-2.6,0.4-4l1.8-12l0.4-2.5l2.1,3.9l8.2,14.8c0.6,1.1,1.1,2.1,1.5,3.2c0.2,0.5,0.5,1.1,0.7,1.6l2.7,0
	l2.7,0v-0.9c0-0.8,0.1-1.3,0.1-1.7c0.1-0.8,0.2-1.9,0.3-3.3c0.1-1.1,0.3-2,0.4-2.7l2.1-13.7c0.3-1.5,0.6-3.4,0.9-4.8
	C536.1,53.1,536.2,52.5,536.8,50.6"/>
<path class="st1" d="M567.5,51.4c-0.9-0.4-1.6-0.6-2-0.8c-0.8-0.3-1.6-0.4-2.5-0.6c-1.2-0.3-2.6-0.4-3.9-0.4c-3.2,0-6.4,0.6-8.9,1.8
	c-3.8,1.7-6.9,4.9-8.7,8.8c-1.1,2.6-1.8,5.7-1.8,8.6c0,2.4,0.5,4.9,1.4,6.8c0.9,1.9,2.4,3.6,4.1,4.6c1.9,1.2,4.5,1.8,7.6,1.8
	c1.8,0,3.9-0.3,5.8-0.7c0.7-0.2,1.3-0.3,2.4-0.7l0.5-1.5l0.7-1.7l0.6-1.3l-0.7-0.5c-0.4,0.4-0.8,0.6-1,0.8c-0.7,0.4-1.4,0.8-2.2,1.1
	c-1.5,0.6-2.7,0.8-4.1,0.8c-2.4,0-4.5-0.9-5.9-2.7c-1.3-1.6-2-4-2-7c0-3.4,0.8-7,2.3-9.9c2-3.9,4.9-6,8.5-6c2.3,0,4.3,0.9,5.7,2.5
	c0.4,0.4,0.7,1,1.1,1.9l0.8-0.2l0.6-1.5l0.9-2.6L567.5,51.4"/>
<path class="st3" d="M591.8,50.6c-2,0-2.7,0.1-4.3,0.1H583l-1.9,0h-5.4c-1,0-2,0-3,0l-1.2,2h0.4c0.8,0,1.1,0.1,1.4,0.4
	c0.3,0.3,0.4,0.8,0.4,1.5c0,0.9-0.2,2.4-0.4,4.1l-2.3,14.8c-0.1,0.5-0.2,1-0.4,1.9c-0.1,0.8-0.2,1.4-0.3,2c-0.4,1.7-0.6,2.3-1.2,4.1
	c0.5,0,1,0,1.4,0c1.6,0,2.2-0.1,2.9-0.1l2.3,0.1h2.3l2.3,0h1.9c2.5,0,3.7,0,3.9,0c0.2,0,0.8,0.1,1.5,0.1l0.5-1.6l0.8-2.2l0.7-1.6
	l-0.8-0.3c-0.4,0.4-0.7,0.6-0.9,0.8c-0.5,0.4-1.1,0.7-1.8,1c-1.1,0.4-2.7,0.7-4.6,0.7c-2.7,0-3.8-0.3-4.2-1.3
	c-0.1-0.4-0.2-0.7-0.2-1.2c0-0.3,0-0.8,0.1-1.2c0-0.6,0.1-1.3,0.3-2.3l0.9-5.8c1.6,0,2.3,0,3.4,0c1.2,0,2.7,0,4,0.1
	c0.4,0,1,0,1.8,0.1l0.1-1l0.3-1.5l0.3-1.1c-1.3,0.1-1.9,0.2-2.7,0.2c-1.1,0-2.4,0.1-3.8,0.1h-0.9c-0.4,0-1,0-1.8,0l0.8-4.9
	c0.2-1.1,0.4-2,0.5-2.9c0-0.4,0.2-0.9,0.4-1.6c1-0.1,2.2-0.1,2.7-0.1c1.7,0,3,0.2,4,0.6c0.8,0.3,1.2,0.7,1.7,1.6l0.7-0.1l0.5-1.3
	l0.9-2.1L591.8,50.6"/>
<path class="st3" d="M217.7,18.6l-0.1-0.4l-1.3,0l-2.6,0l-1-0.1c0.1,0.6,0.1,0.8,0.1,1.3c0,1.2-0.3,2.7-0.9,4.4l-3.4,10l-1,3l-0.3-3
	L206,23.6c-0.1-0.7-0.2-1.6-0.2-2.5c-0.1-0.9-0.1-1.6-0.1-2.2l0-0.8l-1.4,0.1H202l-1.2-0.1l-0.3,0.8c-0.2,0.7-0.5,1.4-0.9,2.2
	c-0.4,0.8-0.8,1.7-1.3,2.6l-5.1,10.1l-1.6,3.1l0.2-3.2l0.6-10c0.1-1.1,0.2-2.3,0.3-3.2c0.1-0.9,0.2-1.3,0.5-2.4l-1.5,0.1h-3.9
	l-1.4,0l-0.9,1.6h0.3c0.5,0,0.7,0,0.9,0.2c0.4,0.2,0.6,0.8,0.6,2c0,0.3,0,0.5,0,1.4v1.4l-0.3,13.3l0,1v1l0,1c0,0.1,0,0.5-0.1,1.1
	l1.5-0.1h2.1l1.4,0.1c0.4-1.1,0.6-1.6,0.9-2.3c0.3-0.6,0.7-1.5,1.1-2.2l5.6-10.6l1.5-2.8l0.3,2.8l1.8,12.2c0.1,0.7,0.2,1.4,0.2,2.1
	v0.9l1.5-0.1h2l1.5,0.1c0.3-1.1,0.5-1.6,0.7-2.2c0.2-0.6,0.5-1.3,0.7-2l5.2-13.4c0.2-0.4,0.4-0.9,0.7-1.8c0.3-0.7,0.5-1.2,0.7-1.6
	C216.8,20.1,216.9,19.7,217.7,18.6"/>
<path class="st3" d="M235.8,18.1c-1.5,0-2,0.1-3.3,0.1h-3.4l-1.4,0h-4.1c-0.7,0-1.5,0-2.3,0l-0.9,1.6h0.3c0.6,0,0.8,0.1,1,0.3
	c0.2,0.2,0.3,0.6,0.3,1.1c0,0.7-0.1,1.9-0.3,3.1l-1.8,11.3c-0.1,0.4-0.1,0.8-0.3,1.4c-0.1,0.6-0.2,1.1-0.2,1.5
	c-0.3,1.3-0.4,1.7-0.9,3.1c0.4,0,0.7,0,1.1,0c1.2,0,1.7-0.1,2.2-0.1l1.7,0.1h1.7l1.7,0h1.5c1.9,0,2.8,0,3,0c0.1,0,0.6,0.1,1.2,0.1
	l0.4-1.2l0.6-1.7l0.5-1.2l-0.6-0.2c-0.3,0.3-0.5,0.5-0.7,0.6c-0.4,0.3-0.9,0.5-1.4,0.7c-0.9,0.3-2.1,0.5-3.5,0.5
	c-2.1,0-2.9-0.2-3.2-1c-0.1-0.3-0.1-0.5-0.1-0.9c0-0.2,0-0.6,0.1-0.9c0-0.4,0.1-1,0.2-1.8l0.7-4.4c1.2,0,1.8,0,2.6,0
	c0.9,0,2,0,3,0.1c0.3,0,0.8,0,1.4,0.1l0.1-0.8l0.2-1.2l0.2-0.9c-1,0.1-1.5,0.1-2.1,0.1c-0.8,0-1.8,0.1-2.9,0.1h-0.7
	c-0.3,0-0.7,0-1.3,0l0.6-3.7c0.1-0.8,0.3-1.5,0.4-2.2c0-0.3,0.1-0.7,0.3-1.2c0.8-0.1,1.6-0.1,2-0.1c1.3,0,2.3,0.1,3.1,0.4
	c0.6,0.2,0.9,0.5,1.3,1.2l0.5-0.1l0.4-1l0.7-1.6L235.8,18.1"/>
<path class="st3" d="M253.1,37.4l-0.5-0.2c-0.9,0.9-1.4,1.2-2.2,1.5c-0.8,0.3-2,0.5-3.3,0.5c-1.9,0-2.7-0.3-3-1
	c-0.1-0.3-0.1-0.5-0.1-0.9c0-0.2,0-0.6,0.1-0.9c0-0.5,0.1-1.1,0.2-1.8l1.8-10.9c0.2-1.4,0.5-2.6,0.7-3.8c0.1-0.6,0.3-1.1,0.4-1.7
	l-1.5,0.1h-3.7l-1.3,0l-0.9,1.6h0.3c0.6,0,0.8,0.1,1,0.3c0.2,0.2,0.3,0.6,0.3,1.1c0,0.7-0.1,1.9-0.3,3.1l-1.8,11.3
	c-0.1,0.4-0.1,0.8-0.3,1.4c-0.1,0.6-0.2,1.1-0.2,1.5c-0.3,1.3-0.4,1.7-0.9,3.1l3.6-0.1l4.6,0.1h1.4l2.9,0.1c0.1,0,0.6,0,1.2,0.1
	l0.4-1.3l0.6-1.6L253.1,37.4"/>
<path class="st3" d="M271.9,37.4l-0.5-0.2c-0.9,0.9-1.4,1.2-2.2,1.5c-0.8,0.3-2,0.5-3.3,0.5c-1.9,0-2.7-0.3-3-1
	c-0.1-0.3-0.1-0.5-0.1-0.9c0-0.2,0-0.6,0.1-0.9c0-0.5,0.1-1.1,0.2-1.8l1.8-10.9c0.2-1.4,0.5-2.6,0.7-3.8c0.1-0.6,0.3-1.1,0.4-1.7
	l-1.5,0.1h-3.7l-1.3,0l-0.9,1.6h0.3c0.6,0,0.8,0.1,1,0.3c0.2,0.2,0.3,0.6,0.3,1.1c0,0.7-0.1,1.9-0.3,3.1L258,35.6
	c-0.1,0.4-0.1,0.8-0.3,1.4c-0.1,0.6-0.2,1.1-0.2,1.5c-0.3,1.3-0.4,1.7-0.9,3.1l3.6-0.1l4.6,0.1h1.4l2.9,0.1c0.1,0,0.6,0,1.2,0.1
	l0.4-1.3l0.6-1.6L271.9,37.4"/>
<path class="st3" d="M284.6,18.2l-1.5,0.1h-3.7l-1.3,0l-0.9,1.6h0.3c0.6,0,0.9,0.1,1,0.3c0.3,0.2,0.3,0.5,0.3,1.2c0,0.2,0,0.6-0.1,1
	c-0.1,0.6-0.2,1.3-0.3,2.1l-1.8,11.3c-0.1,0.4-0.1,0.8-0.3,1.4c-0.1,0.6-0.2,1.1-0.2,1.5c-0.3,1.3-0.4,1.7-0.9,3.1l1.3-0.1h3.2
	l1.3,0.1c-0.1-0.6-0.1-0.8-0.1-1.3c0-1.4,0.2-2.9,0.5-5.1l1.9-11.6c0.2-1.1,0.4-2.4,0.7-3.8L284.6,18.2"/>
<path class="st3" d="M311.9,18.2l-1.3,0h-1.8l-1.3,0c0,0.2,0.1,0.4,0.1,0.5c0,0.3,0.1,0.7,0.1,1.1c0,0.8,0,1.3-0.1,2
	c-0.1,1-0.2,2.1-0.4,3.4l-0.9,6.5l-0.4,2.6l-1.3-2.6l-5.1-9.6c-0.4-0.7-0.8-1.6-1.2-2.6c-0.1-0.3-0.3-0.7-0.5-1.3l-1.8,0l-3.6,0
	l-1.4,0l-0.9,1.6h0.3c0.6,0,0.8,0.1,1,0.2c0.2,0.2,0.3,0.6,0.3,1.1c0,0.7-0.1,1.8-0.3,3.2l-1.8,11c-0.1,0.5-0.1,0.9-0.3,1.6
	c-0.1,0.6-0.2,1.1-0.3,1.6c-0.3,1.3-0.4,1.7-0.8,3.1l1.3-0.1h1.7l1.3,0.1c-0.1-0.2-0.1-0.4-0.1-0.5c0-0.3-0.1-0.7-0.1-1.1
	c0-0.7,0-1.2,0.1-1.9c0.1-1,0.2-2,0.3-3l1.3-9.2l0.3-1.9l1.6,3l6.2,11.3c0.4,0.8,0.8,1.6,1.2,2.4c0.2,0.4,0.4,0.8,0.5,1.2l2.1,0l2,0
	v-0.7c0-0.6,0.1-1,0.1-1.3c0.1-0.6,0.1-1.5,0.2-2.5c0.1-0.8,0.2-1.5,0.3-2.1l1.6-10.4c0.2-1.2,0.5-2.6,0.7-3.6
	C311.4,20.1,311.5,19.6,311.9,18.2"/>
<path class="st3" d="M336.7,19c-0.6-0.2-1-0.4-1.3-0.5c-0.5-0.2-1.2-0.4-2-0.5c-1.4-0.3-2.6-0.4-4-0.4c-3.1,0-5.8,0.6-8.1,1.9
	c-2.9,1.6-5.2,4.3-6.2,7.5c-0.5,1.6-0.8,3.5-0.8,5.2c0,1.3,0.2,2.5,0.5,3.7c0.3,0.9,0.6,1.7,1.1,2.5c1,1.5,2.5,2.6,4.1,3.2
	c1.5,0.5,3.2,0.8,5.2,0.8c1.2,0,2.7-0.1,4.2-0.3c1.5-0.2,2.2-0.4,4-0.9c0.1-1.4,0.2-2,0.4-3.5l0.4-2.6c0.2-1.1,0.3-2,0.5-2.8
	c0.2-0.4,0.3-0.8,0.4-1.2l-1.5,0.1h-3.7l-1.4,0l-0.9,1.6h0.3c0.6,0,0.9,0.1,1.2,0.3c0.2,0.2,0.3,0.5,0.3,1.1c0,0.2,0,0.5,0,0.7
	c0,0.4-0.1,0.7-0.1,1.1l-0.2,1.1c0,0.4-0.2,0.8-0.3,1.2c-0.1,0.5-0.3,0.8-0.6,1c-0.6,0.5-1.8,0.8-3,0.8c-1.1,0-2.2-0.3-3-0.9
	c-1-0.7-1.6-1.7-2-3.2c-0.3-1-0.4-2.2-0.4-3.4c0-2.1,0.4-4.1,1-6c0.8-2.4,2-4,3.5-5c1.2-0.8,2.7-1.3,4.3-1.3c1.4,0,2.8,0.4,3.8,1.2
	c0.8,0.5,1.2,1,1.9,2.3l0.6-0.1l0.3-1.1l0.7-1.8L336.7,19"/>
<path class="st3" d="M359.9,18.1h-0.5l-0.5,0h-0.5c-2.7,0-5.7,0.1-8.6,0.1c-1.9,0-3.7,0-5.4,0c-1.9-0.1-0.8,0.1-3.7-0.1l-0.5,0
	l-0.4,1.3l-0.5,1.6l-0.4,1.1l0.5,0.2c0.7-0.6,1-0.8,1.6-1.1c0.7-0.4,1.5-0.5,2.5-0.7c0.8-0.1,1.4-0.1,3.1-0.1
	c-0.1,0.7-0.2,1.3-0.2,1.6c-0.1,0.9-0.2,1.6-0.3,2.2l-1.8,11.2c-0.1,0.4-0.1,0.8-0.2,1.4c-0.1,0.6-0.2,1.1-0.3,1.5
	c-0.2,1.3-0.3,1.7-0.8,3.1l1.3-0.1h3.2l1.3,0.1c-0.1-0.6-0.1-0.8-0.1-1.3c0-1.4,0.1-2.8,0.5-5.1l1.9-11.8l0.6-3.1c0.2,0,0.3,0,0.5,0
	h1.1c0.5,0,1.2,0.1,1.7,0.1c0.5,0.1,0.9,0.2,1.3,0.3c0.6,0.3,0.9,0.5,1.3,1.3l0.5-0.1l0.4-1l0.6-1.7L359.9,18.1"/>
<path class="st3" d="M376.6,26.5c0,3.3-0.8,7.2-2.1,9.5c-1.4,2.8-3.5,4.2-6.1,4.2c-1.1,0-2.2-0.3-3-1c-0.9-0.7-1.5-1.9-1.9-3.4
	c-0.2-0.7-0.2-1.6-0.2-2.8c0-0.7,0.1-1.6,0.1-2.4c0.2-1.6,0.5-3.1,0.9-4.5c0.5-1.5,1-2.7,1.6-3.6c0.9-1.3,1.8-2.1,3-2.7
	c0.8-0.4,1.5-0.5,2.5-0.5c0.2,0,0.5,0,0.8,0.1c0.6,0.1,1.1,0.3,1.5,0.5c0.8,0.4,1.5,1.1,1.9,2.1C376.4,23.4,376.6,24.6,376.6,26.5
	 M382,27.4c0-1.6-0.3-3.2-0.8-4.6c-0.9-2.2-2.3-3.6-4.2-4.5c-1.4-0.6-3.1-1-4.9-1c-0.9,0-2,0.1-2.8,0.3c-1,0.2-2.1,0.5-3.1,1
	c-2.7,1.3-5,3.6-6.5,6.4c-1.1,2.1-1.8,4.8-1.8,7.4c0,1.6,0.2,3.1,0.7,4.3c0.9,2.3,2.7,4.1,4.9,5.1c1.2,0.5,2.7,0.7,4.3,0.7
	c1.3,0,2.5-0.1,3.6-0.4c2.1-0.6,4.1-1.7,5.7-3.1C380.2,36.1,382,31.7,382,27.4z"/>
<path class="st3" d="M408.8,18.2l-1.3,0h-1.8l-1.3,0c0,0.2,0.1,0.4,0.1,0.5c0,0.3,0.1,0.7,0.1,1.1c0,0.8,0,1.3-0.1,2
	c-0.1,1-0.2,2.1-0.4,3.4l-0.9,6.5l-0.4,2.6l-1.3-2.6l-5.1-9.6c-0.4-0.7-0.8-1.6-1.2-2.6c-0.1-0.3-0.3-0.7-0.5-1.3l-1.8,0l-3.6,0
	l-1.4,0l-0.9,1.6h0.3c0.6,0,0.8,0.1,1,0.2c0.2,0.2,0.3,0.6,0.3,1.1c0,0.7-0.1,1.8-0.3,3.2l-1.8,11c-0.1,0.5-0.1,0.9-0.3,1.6
	c-0.1,0.6-0.2,1.1-0.3,1.6c-0.3,1.3-0.4,1.7-0.8,3.1l1.3-0.1h1.7l1.3,0.1c-0.1-0.2-0.1-0.4-0.1-0.5c0-0.3-0.1-0.7-0.1-1.1
	c0-0.7,0-1.2,0.1-1.9c0.1-1,0.2-2,0.3-3l1.3-9.2l0.3-1.9l1.6,3l6.2,11.3c0.4,0.8,0.8,1.6,1.2,2.4c0.2,0.4,0.4,0.8,0.5,1.2l2.1,0l2,0
	v-0.7c0-0.6,0.1-1,0.1-1.3c0.1-0.6,0.1-1.5,0.2-2.5c0.1-0.8,0.2-1.5,0.3-2.1l1.6-10.4c0.2-1.2,0.5-2.6,0.7-3.6
	C408.3,20.1,408.4,19.6,408.8,18.2"/>
<g>
	<path class="st2" d="M390.6,97.1c-0.3,0.2-0.6,0.4-0.7,0.5c-0.2,0.2-0.6,0.4-1.1,0.8c-0.7,0.5-1.2,0.9-1.5,1.2l-2.4,2
		c0.3,0.6,0.4,0.8,0.7,1.2l0.7,1.3c0.9,1.7,1.6,2.9,2.2,3.7c0.4,0.6,0.6,0.8,1.2,1.3l-0.1,0.2h-0.7l-1.4,0.1l-0.7,0
		c-0.3-0.6-0.4-0.8-0.7-1.4l-0.4-0.9c-0.7-1.6-1.8-3.6-2.3-4.4c-0.4,0.3-0.6,0.4-1,0.8c-0.4,2.3-0.5,3.6-0.5,4.8c0,0.4,0,0.6,0.1,1
		l-0.6-0.1h-1.5l-0.7,0.1c0.2-0.5,0.3-0.9,0.3-1.2c0.2-0.8,0.6-2.4,0.7-3.3l1.7-10.6c0.2-1,0.3-2,0.3-2.4c0-0.8-0.3-1.1-0.9-1.1H381
		l0.6-0.9h0.6l1.8-0.1l0.8-0.1c-0.5,2.1-0.7,2.9-0.9,4.4l-1.2,7.8l0.6-0.6l2.4-2.1c0.7-0.6,1.1-1,1.4-1.5c0.2-0.3,0.3-0.5,0.4-0.9
		h0.8l1.4,0l0.9,0L390.6,97.1z"/>
	<path class="st2" d="M396.5,101.2l-0.6,3.3c-0.3,1.6-0.4,2.8-0.4,3.9c0,0.4,0,0.6,0.1,1l-0.6-0.1h-1.5l-0.7,0.1
		c0.2-0.5,0.3-0.9,0.3-1.2c0.1-0.5,0.3-1.1,0.4-1.9c0.1-0.6,0.2-1,0.2-1.4l0.6-3.6c0.2-1.1,0.3-2,0.3-2.4c0-0.8-0.2-1.1-0.9-1.1
		h-0.2l0.6-0.9l0.6,0l1.8-0.1l0.8-0.1C396.9,98.8,396.8,99.6,396.5,101.2z M398,92.9c-0.2,0.5-0.4,0.7-1.3,0.7h-0.2
		c-0.6,0-0.8-0.2-0.8-0.6c0-0.2,0-0.5,0.1-0.8c0.1-0.6,0.2-0.8,0.4-1c0.2-0.2,0.6-0.2,1.2-0.2c0.6,0,0.8,0.1,0.8,0.6
		C398.3,91.8,398.2,92.4,398,92.9z"/>
	<path class="st2" d="M411.3,97.8c-0.2,0.7-0.2,0.9-0.4,2.3l-0.7,4.8c-0.1,0.9-0.2,1.8-0.2,2.3c0,0.9,0.3,1.2,1,1.2h0.2l-0.6,0.9
		l-0.6,0l-1.6,0.1l-0.6,0.1l0.1-0.9l0.3-2.9c-0.6,0.8-0.9,1.1-1.5,1.7c-1.7,1.7-2.7,2.3-3.7,2.3c-1.6,0-2.5-1.6-2.5-4.3
		c0-2.6,0.9-5.2,2.4-6.7c1.4-1.5,3.2-2.2,5.6-2.2c1.1,0,1.8,0.1,3.2,0.5C411.4,97.4,411.4,97.6,411.3,97.8z M407.1,97.9
		c-2.6,0-4.4,2.9-4.4,7c0,1.8,0.4,2.8,1.3,2.8c0.7,0,1.8-0.7,2.9-2.1c0.6-0.7,1.1-1.4,1.3-2.1c0.2-0.5,0.3-0.7,0.4-2l0.2-1.7
		c0.1-0.4,0.1-0.7,0.2-1.4C408.3,98,407.8,97.9,407.1,97.9z"/>
	<path class="st2" d="M427.7,109.9c-2.7,0-4.3-1.9-4.3-5.2c0-4.5,3-8.4,6.7-8.4h0.2c2.8,0,4.3,1.8,4.3,5.1
		C434.7,106.1,431.6,109.9,427.7,109.9z M429.7,97.5c-0.1,0-0.3,0-0.4,0.1c-2.1,0.4-3.5,3.3-3.5,7.3c0,2.5,1,4,2.6,4
		c2.3,0,3.9-3,3.9-7.3C432.3,98.9,431.4,97.5,429.7,97.5z"/>
	<path class="st2" d="M446.2,97.5l-0.3,1.1l-0.2,0.9l-0.2,0.1c-0.4-0.3-0.7-0.5-1.1-0.5c-0.5,0-1.1,0.3-1.6,0.8
		c-0.7,0.7-1.3,1.7-1.7,2.7c-0.2,0.6-0.3,1-0.4,2l-0.3,2.2c-0.1,0.4-0.1,1.1-0.1,1.7c0,0.5,0,0.6,0.1,1.1l-0.6-0.1h-1.5l-0.7,0.1
		c0.2-0.5,0.3-0.9,0.3-1.2c0.1-0.5,0.3-1.1,0.4-1.9c0.1-0.6,0.2-1,0.3-1.4l0.5-3.6c0.1-0.8,0.2-1.6,0.2-2.1c0-1.1-0.2-1.4-1-1.4
		h-0.2l0.6-0.9l0.6,0l1.6-0.1l0.6-0.1c-0.3,1.7-0.3,2.1-0.6,3.8c0.4-0.5,0.6-0.9,0.8-1.2c0.7-1,1.2-1.6,1.7-2c0.6-0.6,1.3-0.8,2-0.8
		c0.2,0,0.4,0,0.8,0.1L446.2,97.5z"/>
	<path class="st2" d="M458.1,97.8c-0.2,0.7-0.2,0.9-0.4,2.3l-0.7,4.8c-0.1,0.9-0.2,1.8-0.2,2.3c0,0.9,0.3,1.2,1,1.2h0.2l-0.6,0.9
		l-0.6,0l-1.6,0.1l-0.6,0.1l0.1-0.9l0.3-2.9c-0.6,0.8-0.9,1.1-1.5,1.7c-1.7,1.7-2.7,2.3-3.7,2.3c-1.6,0-2.5-1.6-2.5-4.3
		c0-2.6,0.9-5.2,2.4-6.7c1.4-1.5,3.2-2.2,5.6-2.2c1.1,0,1.8,0.1,3.2,0.5C458.3,97.4,458.2,97.6,458.1,97.8z M454,97.9
		c-2.6,0-4.4,2.9-4.4,7c0,1.8,0.4,2.8,1.3,2.8c0.7,0,1.8-0.7,2.9-2.1c0.6-0.7,1.1-1.4,1.3-2.1c0.2-0.5,0.3-0.7,0.4-2l0.2-1.7
		c0.1-0.4,0.1-0.7,0.2-1.4C455.1,98,454.7,97.9,454,97.9z"/>
	<path class="st2" d="M478,97.6l-0.4,0.7c-1-0.1-1.4-0.1-1.9-0.1h-0.2l-1,0l-0.6,3l-0.4,2.8c-0.2,1.5-0.3,2.1-0.3,2.8
		c0,1.1,0.5,1.7,1.4,1.7c0.6,0,1.2-0.2,2-0.7l0.2,0.1l-0.3,0.7l-0.2,0.6c-1.1,0.5-1.7,0.6-2.5,0.6c-1.8,0-2.7-0.9-2.7-2.7V107
		c0-0.6,0-0.7,0.3-2.4l0.4-2.7c0.3-1.8,0.3-2.4,0.3-2.8c0-0.8-0.2-1.2-0.9-1.2h-0.4l0.6-0.9l1.1,0c0.2-1.1,0.3-1.5,0.4-2.7l0.6-0.3
		l0.9-0.4l0.7-0.4l0.2,0.1c-0.1,0.4-0.2,0.7-0.3,0.9c-0.1,0.5-0.2,0.9-0.6,2.8l1.8,0h0.2c0.8,0,1.1,0,1.8-0.1l0.1,0.2L478,97.6z"/>
	<path class="st2" d="M482.1,103.6c-0.1,0.6-0.1,0.8-0.1,1.2c0,2.3,1,3.5,2.8,3.5c0.6,0,1.2-0.2,1.9-0.5c0.6-0.3,1-0.5,1.8-1.2
		l0.2,0.1l-0.2,0.8l-0.2,0.7c-0.9,0.6-1.4,0.9-1.9,1.1c-0.9,0.4-1.8,0.6-2.6,0.6c-2.4,0-3.9-1.8-3.9-4.6c0-4.8,3.3-8.8,7.1-8.8
		c1.7,0,2.8,1,2.8,2.6C489.7,101.6,486.7,103.3,482.1,103.6z M486,97.8c-1.8,0-3.3,1.7-3.8,4.5c0.2,0,0.4,0,0.6,0
		c0.7,0,1.9-0.2,2.8-0.6c1.4-0.5,2.1-1.3,2.1-2.4C487.7,98.5,487,97.8,486,97.8z"/>
	<path class="st2" d="M508.7,97.6l-0.4,0.7c-1-0.1-1.4-0.1-1.9-0.1h-0.2l-1,0l-0.6,3l-0.4,2.8c-0.2,1.5-0.3,2.1-0.3,2.8
		c0,1.1,0.5,1.7,1.4,1.7c0.6,0,1.2-0.2,2-0.7l0.2,0.1l-0.3,0.7l-0.2,0.6c-1.1,0.5-1.7,0.6-2.5,0.6c-1.8,0-2.7-0.9-2.7-2.7V107
		c0-0.6,0-0.7,0.3-2.4l0.4-2.7c0.3-1.8,0.3-2.4,0.3-2.8c0-0.8-0.2-1.2-0.9-1.2h-0.4l0.6-0.9l1.1,0c0.2-1.1,0.3-1.5,0.4-2.7l0.6-0.3
		l0.9-0.4l0.7-0.4l0.2,0.1c-0.1,0.4-0.2,0.7-0.3,0.9c-0.1,0.5-0.2,0.9-0.6,2.8l1.8,0h0.2c0.8,0,1.1,0,1.8-0.1l0.1,0.2L508.7,97.6z"
		/>
	<path class="st2" d="M521.3,97.8c-0.2,0.7-0.2,0.9-0.4,2.3l-0.7,4.8c-0.1,0.9-0.2,1.8-0.2,2.3c0,0.9,0.3,1.2,1,1.2h0.2l-0.6,0.9
		l-0.6,0l-1.6,0.1l-0.6,0.1l0.1-0.9l0.3-2.9c-0.6,0.8-0.9,1.1-1.5,1.7c-1.7,1.7-2.7,2.3-3.7,2.3c-1.6,0-2.5-1.6-2.5-4.3
		c0-2.6,0.9-5.2,2.4-6.7c1.4-1.5,3.2-2.2,5.5-2.2c1.1,0,1.8,0.1,3.2,0.5C521.5,97.4,521.4,97.6,521.3,97.8z M517.2,97.9
		c-2.6,0-4.4,2.9-4.4,7c0,1.8,0.4,2.8,1.3,2.8c0.7,0,1.8-0.7,2.9-2.1c0.6-0.7,1.1-1.4,1.3-2.1c0.2-0.5,0.3-0.7,0.4-2l0.2-1.7
		c0.1-0.4,0.1-0.7,0.2-1.4C518.3,98,517.9,97.9,517.2,97.9z"/>
	<path class="st2" d="M536.7,100.8l-0.3,1.8l-0.3,1.9c-0.3,1.8-0.4,2.8-0.4,3.9c0,0.4,0,0.6,0.1,1l-0.6-0.1h-1.4l-0.7,0.1
		c0.2-0.5,0.3-0.9,0.3-1.2c0.2-0.8,0.5-2.2,0.7-3.3l0.4-2.6c0.2-1,0.3-1.9,0.3-2.4c0-1-0.4-1.5-1.3-1.5c-0.8,0-1.9,0.7-3.1,1.8
		c-0.9,0.8-1.4,1.6-1.8,2.4c-0.2,0.6-0.4,0.9-0.5,1.7l-0.3,2.2c-0.1,0.4-0.1,1.1-0.1,1.7c0,0.5,0,0.6,0.1,1.1l-0.6-0.1h-1.5
		l-0.7,0.1c0.2-0.5,0.3-0.9,0.3-1.2c0.1-0.5,0.3-1.1,0.4-1.9c0.1-0.6,0.2-1,0.2-1.4l0.6-3.6c0.2-1.1,0.3-2,0.3-2.4
		c0-0.8-0.2-1.1-0.9-1.1h-0.2l0.6-0.9l0.6,0l1.8-0.1l0.6-0.1l-0.3,1.8l-0.4,2.2c1.1-1.3,1.6-1.7,2.6-2.5c1.6-1.3,2.6-1.8,3.7-1.8
		c1.4,0,2.1,0.9,2.1,2.6C536.9,99.6,536.8,100.2,536.7,100.8z"/>
	<path class="st2" d="M552.6,97.6l-0.4,0.7c-1-0.1-1.3-0.1-1.7-0.1h-0.3c0.4,0.7,0.5,1.1,0.5,1.9c0,2.7-2,4.8-4.6,4.8
		c-0.7,0-1.4-0.1-2.1-0.4c-0.5,0.4-0.7,0.7-0.7,1.1c0,0.3,0.1,0.6,0.3,0.8c0.4,0.4,0.9,0.6,2.6,1.1c2.1,0.6,2.7,0.9,3.3,1.3
		c0.7,0.6,1.1,1.4,1.1,2.3c0,2.7-2.7,4.7-6.3,4.7c-3.2,0-5.3-1.4-5.3-3.5c0-0.9,0.3-1.6,1-2.2c0.5-0.4,0.9-0.7,2-1.3l0.7-0.4
		c-1.1-0.6-1.6-1.1-1.6-1.7c0-0.5,0.3-1.1,1-1.7l0.6-0.5l0.4-0.4c-0.7-0.8-1.1-1.6-1.1-2.6c0-2.8,2.1-4.9,4.9-4.9
		c0.8,0,1.2,0.1,2,0.4h2.1c1,0,1.2,0,2-0.1l0.1,0.2L552.6,97.6z M547.4,110c-0.4-0.3-0.8-0.4-1.7-0.7c-0.9-0.3-1.5-0.4-1.8-0.4h-0.1
		c-0.4,0.1-1.2,0.4-1.8,0.9c-0.9,0.7-1.3,1.4-1.3,2.3c0,1.6,1.5,2.6,3.7,2.6c2.2,0,4-1.3,4-2.9C548.5,111,548.1,110.4,547.4,110z
		 M546.6,97.6h-0.1c-1.4,0-2.4,1.6-2.4,3.8c0,1.6,0.7,2.6,1.9,2.6c1.4,0,2.5-1.6,2.5-3.7C548.5,98.6,547.8,97.6,546.6,97.6z"/>
	<path class="st2" d="M565,97.8c-0.2,0.7-0.2,0.9-0.4,2.3l-0.7,4.8c-0.1,0.9-0.2,1.8-0.2,2.3c0,0.9,0.3,1.2,1,1.2h0.2l-0.6,0.9
		l-0.6,0l-1.6,0.1l-0.6,0.1l0.1-0.9l0.3-2.9c-0.6,0.8-0.9,1.1-1.5,1.7c-1.7,1.7-2.7,2.3-3.7,2.3c-1.6,0-2.5-1.6-2.5-4.3
		c0-2.6,0.9-5.2,2.4-6.7c1.4-1.5,3.2-2.2,5.6-2.2c1.1,0,1.8,0.1,3.2,0.5C565.1,97.4,565.1,97.6,565,97.8z M560.8,97.9
		c-2.6,0-4.4,2.9-4.4,7c0,1.8,0.4,2.8,1.3,2.8c0.7,0,1.8-0.7,2.9-2.1c0.6-0.7,1.1-1.4,1.3-2.1c0.2-0.5,0.3-0.7,0.4-2l0.2-1.7
		c0.1-0.4,0.1-0.7,0.2-1.4C562,98,561.6,97.9,560.8,97.9z"/>
	<path class="st2" d="M576.2,97.6l-0.4,0.7c-1-0.1-1.4-0.1-1.9-0.1h-0.2l-1,0l-0.6,3l-0.4,2.8c-0.2,1.5-0.3,2.1-0.3,2.8
		c0,1.1,0.5,1.7,1.4,1.7c0.6,0,1.2-0.2,2-0.7l0.2,0.1l-0.3,0.7l-0.2,0.6c-1.1,0.5-1.7,0.6-2.5,0.6c-1.8,0-2.7-0.9-2.7-2.7V107
		c0-0.6,0-0.7,0.3-2.4l0.4-2.7c0.3-1.8,0.3-2.4,0.3-2.8c0-0.8-0.2-1.2-0.9-1.2h-0.4l0.6-0.9l1.1,0c0.2-1.1,0.3-1.5,0.4-2.7l0.6-0.3
		l0.9-0.4l0.7-0.4l0.2,0.1c-0.1,0.4-0.2,0.7-0.3,0.9c-0.1,0.5-0.2,0.9-0.6,2.8l1.8,0h0.2c0.8,0,1.1,0,1.8-0.1l0.1,0.2L576.2,97.6z"
		/>
	<path class="st2" d="M588.9,97.8c-0.2,0.7-0.2,0.9-0.4,2.3l-0.7,4.8c-0.1,0.9-0.2,1.8-0.2,2.3c0,0.9,0.3,1.2,1,1.2h0.2l-0.6,0.9
		l-0.6,0l-1.6,0.1l-0.6,0.1l0.1-0.9l0.3-2.9c-0.6,0.8-0.9,1.1-1.5,1.7c-1.7,1.7-2.7,2.3-3.7,2.3c-1.6,0-2.5-1.6-2.5-4.3
		c0-2.6,0.9-5.2,2.4-6.7c1.4-1.5,3.2-2.2,5.6-2.2c1.1,0,1.8,0.1,3.2,0.5C589,97.4,588.9,97.6,588.9,97.8z M584.7,97.9
		c-2.6,0-4.4,2.9-4.4,7c0,1.8,0.4,2.8,1.3,2.8c0.7,0,1.8-0.7,2.9-2.1c0.6-0.7,1.1-1.4,1.3-2.1c0.2-0.5,0.3-0.7,0.4-2l0.2-1.7
		c0.1-0.4,0.1-0.7,0.2-1.4C585.9,98,585.4,97.9,584.7,97.9z"/>
</g>
</svg>
